<svg width="21" height="21" viewBox="0 0 21 21" fill="none" xmlns="http://www.w3.org/2000/svg">
<path fill-rule="evenodd" clip-rule="evenodd" d="M10.512 13.3267L17.584 20.3907C17.9593 20.7655 18.4683 20.9761 18.999 20.9761C19.5297 20.9761 20.0386 20.7655 20.4139 20.3907C20.7892 20.0158 21 19.5074 21 18.9773C21 18.4472 20.7892 17.9388 20.4139 17.564L13.3392 10.5L20.4126 3.436C20.5983 3.2504 20.7456 3.03008 20.8461 2.78761C20.9466 2.54514 20.9983 2.28528 20.9982 2.02286C20.9981 1.76045 20.9463 1.50061 20.8457 1.25819C20.7451 1.01577 20.5977 0.795517 20.4119 0.610003C20.2261 0.424489 20.0055 0.277349 19.7628 0.176983C19.52 0.076617 19.2599 0.024991 18.9972 0.0250528C18.7344 0.0251147 18.4743 0.0768628 18.2316 0.177343C17.9889 0.277823 17.7684 0.425068 17.5827 0.61067L10.512 7.67467L3.4399 0.61067C3.25546 0.419744 3.0348 0.267422 2.79079 0.162589C2.54679 0.0577566 2.28432 0.00251348 2.01871 8.37926e-05C1.7531 -0.00234589 1.48967 0.0480861 1.24378 0.148437C0.997896 0.248788 0.774479 0.397049 0.586569 0.584568C0.398659 0.772087 0.250018 0.99511 0.149321 1.24062C0.0486234 1.48613 -0.0021145 1.74922 6.75023e-05 2.01453C0.0022495 2.27984 0.0573075 2.54205 0.162029 2.78588C0.266751 3.02971 0.41904 3.25026 0.610009 3.43467L7.68474 10.5L0.611343 17.5653C0.420374 17.7497 0.268086 17.9703 0.163364 18.2141C0.0586417 18.4579 0.003583 18.7202 0.001401 18.9855C-0.000780998 19.2508 0.0499569 19.5139 0.150654 19.7594C0.251352 20.0049 0.399992 20.2279 0.587902 20.4154C0.775812 20.6029 0.999229 20.7512 1.24512 20.8516C1.491 20.9519 1.75444 21.0023 2.02005 20.9999C2.28565 20.9975 2.54812 20.9422 2.79213 20.8374C3.03613 20.7326 3.25679 20.5803 3.44123 20.3893L10.512 13.3267Z" fill="#B4B4B4"/>
</svg>
