<svg width="1012" height="676" viewBox="0 0 1012 676" fill="none" xmlns="http://www.w3.org/2000/svg">
<path d="M784 96.5H790.5V659.5H784C783.172 659.5 782.5 658.828 782.5 658V98C782.5 97.1716 783.172 96.5 784 96.5Z" stroke="#101010"/>
<path d="M806.5 96.5V659.5H790.5V96.5H806.5Z" stroke="#101010"/>
<path d="M820.5 96.5V659.5H806.5V96.5H820.5Z" stroke="#101010"/>
<path d="M834.5 96.5V659.5H820.5V96.5H834.5Z" stroke="#101010"/>
<path d="M848.5 96.5V659.5H834.5V96.5H848.5Z" stroke="#101010"/>
<path d="M862.5 96.5V659.5H848.5V96.5H862.5Z" stroke="#101010"/>
<path d="M876.5 96.5V659.5H862.5V96.5H876.5Z" stroke="#101010"/>
<path d="M890.5 96.5V659.5H876.5V96.5H890.5Z" stroke="#101010"/>
<path d="M918.5 96.5V659.5H904.5V96.5H918.5Z" stroke="#101010"/>
<path d="M932.5 96.5V659.5H918.5V96.5H932.5Z" stroke="#101010"/>
<path d="M946.5 96.5V659.5H932.5V96.5H946.5Z" stroke="#101010"/>
<path d="M960.5 96.5V659.5H946.5V96.5H960.5Z" stroke="#101010"/>
<path d="M974.5 96.5V659.5H960.5V96.5H974.5Z" stroke="#101010"/>
<path d="M988.5 96.5V659.5H974.5V96.5H988.5Z" stroke="#101010"/>
<path d="M1002.5 96.5V659.5H988.5V96.5H1002.5Z" stroke="#101010"/>
<path d="M1011.5 96.5V659.5H1002.5V96.5H1011.5Z" stroke="#101010"/>
<path d="M896.5 96.5V659.5H890.5V96.5H896.5Z" stroke="#101010"/>
<path d="M904.5 96.5V659.5H896.5V96.5H904.5Z" stroke="#101010"/>
<path d="M785 78.5H1008C1009.38 78.5 1010.5 79.6193 1010.5 81V84.5H782.5V81C782.5 79.6193 783.619 78.5 785 78.5Z" stroke="#101010"/>
<path d="M785 81.5H1008C1009.38 81.5 1010.5 82.6193 1010.5 84V84.5H782.5V84C782.5 82.6193 783.619 81.5 785 81.5Z" stroke="#101010"/>
<rect x="801.5" y="84.5" width="13" height="12" stroke="#101010"/>
<rect x="806.5" y="84.5" width="8" height="12" stroke="#101010"/>
<rect x="978.5" y="84.5" width="13" height="12" stroke="#101010"/>
<rect x="983.5" y="84.5" width="8" height="12" stroke="#101010"/>
<path d="M996 675.5C999.038 675.5 1001.5 673.038 1001.5 670V659.5H991.5V675.5H996Z" stroke="#101010"/>
<path d="M819 675.5C822.038 675.5 824.5 673.038 824.5 670V659.5H818.5V675.5H819Z" stroke="#101010"/>
<path d="M973 675.5C969.962 675.5 967.5 673.038 967.5 670V659.5H991.5V675.5H973Z" stroke="#101010"/>
<path d="M796 675.5C792.962 675.5 790.5 673.038 790.5 670V659.5H818.5V675.5H796Z" stroke="#101010"/>
<path fill-rule="evenodd" clip-rule="evenodd" d="M811.25 519.75C811.25 519.551 811.171 519.36 811.03 519.22C810.89 519.079 810.699 519 810.5 519C810.301 519 810.11 519.079 809.97 519.22C809.829 519.36 809.75 519.551 809.75 519.75V522.75H806.75C806.551 522.75 806.36 522.829 806.22 522.97C806.079 523.11 806 523.301 806 523.5C806 523.699 806.079 523.89 806.22 524.03C806.36 524.171 806.551 524.25 806.75 524.25H809.75V527.25C809.75 527.449 809.829 527.64 809.97 527.78C810.11 527.921 810.301 528 810.5 528C810.699 528 810.89 527.921 811.03 527.78C811.171 527.64 811.25 527.449 811.25 527.25V524.25H814.25C814.449 524.25 814.64 524.171 814.78 524.03C814.921 523.89 815 523.699 815 523.5C815 523.301 814.921 523.11 814.78 522.97C814.64 522.829 814.449 522.75 814.25 522.75H811.25V519.75Z" fill="#101010"/>
<path fill-rule="evenodd" clip-rule="evenodd" d="M803 523.5C803 519.358 806.358 516 810.5 516C814.642 516 818 519.358 818 523.5C818 527.642 814.642 531 810.5 531C806.358 531 803 527.642 803 523.5ZM810.5 517.5C808.909 517.5 807.383 518.132 806.257 519.257C805.132 520.383 804.5 521.909 804.5 523.5C804.5 525.091 805.132 526.617 806.257 527.743C807.383 528.868 808.909 529.5 810.5 529.5C812.091 529.5 813.617 528.868 814.743 527.743C815.868 526.617 816.5 525.091 816.5 523.5C816.5 521.909 815.868 520.383 814.743 519.257C813.617 518.132 812.091 517.5 810.5 517.5Z" fill="#101010"/>
<rect x="782.5" y="218.5" width="114" height="323" fill="#F9FBFC" stroke="#101010"/>
<path fill-rule="evenodd" clip-rule="evenodd" d="M803 234.5C803 230.358 806.358 227 810.5 227C814.642 227 818 230.358 818 234.5C818 238.642 814.642 242 810.5 242C806.358 242 803 238.642 803 234.5ZM810.5 228.5C808.909 228.5 807.383 229.132 806.257 230.257C805.132 231.383 804.5 232.909 804.5 234.5C804.5 236.091 805.132 237.617 806.257 238.743C807.383 239.868 808.909 240.5 810.5 240.5C812.091 240.5 813.617 239.868 814.743 238.743C815.868 237.617 816.5 236.091 816.5 234.5C816.5 232.909 815.868 231.383 814.743 230.257C813.617 229.132 812.091 228.5 810.5 228.5Z" fill="#101010"/>
<path fill-rule="evenodd" clip-rule="evenodd" d="M811.25 230.75C811.25 230.551 811.171 230.36 811.03 230.22C810.89 230.079 810.699 230 810.5 230C810.301 230 810.11 230.079 809.97 230.22C809.829 230.36 809.75 230.551 809.75 230.75V233.75H806.75C806.551 233.75 806.36 233.829 806.22 233.97C806.079 234.11 806 234.301 806 234.5C806 234.699 806.079 234.89 806.22 235.03C806.36 235.171 806.551 235.25 806.75 235.25H809.75V238.25C809.75 238.449 809.829 238.64 809.97 238.78C810.11 238.921 810.301 239 810.5 239C810.699 239 810.89 238.921 811.03 238.78C811.171 238.64 811.25 238.449 811.25 238.25V235.25H814.25C814.449 235.25 814.64 235.171 814.78 235.03C814.921 234.89 815 234.699 815 234.5C815 234.301 814.921 234.11 814.78 233.97C814.64 233.829 814.449 233.75 814.25 233.75H811.25V230.75Z" fill="#101010"/>
<path fill-rule="evenodd" clip-rule="evenodd" d="M875 234.5C875 230.358 878.358 227 882.5 227C886.642 227 890 230.358 890 234.5C890 238.642 886.642 242 882.5 242C878.358 242 875 238.642 875 234.5ZM882.5 228.5C880.909 228.5 879.383 229.132 878.257 230.257C877.132 231.383 876.5 232.909 876.5 234.5C876.5 236.091 877.132 237.617 878.257 238.743C879.383 239.868 880.909 240.5 882.5 240.5C884.091 240.5 885.617 239.868 886.743 238.743C887.868 237.617 888.5 236.091 888.5 234.5C888.5 232.909 887.868 231.383 886.743 230.257C885.617 229.132 884.091 228.5 882.5 228.5Z" fill="#101010"/>
<path fill-rule="evenodd" clip-rule="evenodd" d="M883.25 230.75C883.25 230.551 883.171 230.36 883.03 230.22C882.89 230.079 882.699 230 882.5 230C882.301 230 882.11 230.079 881.97 230.22C881.829 230.36 881.75 230.551 881.75 230.75V233.75H878.75C878.551 233.75 878.36 233.829 878.22 233.97C878.079 234.11 878 234.301 878 234.5C878 234.699 878.079 234.89 878.22 235.03C878.36 235.171 878.551 235.25 878.75 235.25H881.75V238.25C881.75 238.449 881.829 238.64 881.97 238.78C882.11 238.921 882.301 239 882.5 239C882.699 239 882.89 238.921 883.03 238.78C883.171 238.64 883.25 238.449 883.25 238.25V235.25H886.25C886.449 235.25 886.64 235.171 886.78 235.03C886.921 234.89 887 234.699 887 234.5C887 234.301 886.921 234.11 886.78 233.97C886.64 233.829 886.449 233.75 886.25 233.75H883.25V230.75Z" fill="#101010"/>
<path fill-rule="evenodd" clip-rule="evenodd" d="M875 523.5C875 519.358 878.358 516 882.5 516C886.642 516 890 519.358 890 523.5C890 527.642 886.642 531 882.5 531C878.358 531 875 527.642 875 523.5ZM882.5 517.5C880.909 517.5 879.383 518.132 878.257 519.257C877.132 520.383 876.5 521.909 876.5 523.5C876.5 525.091 877.132 526.617 878.257 527.743C879.383 528.868 880.909 529.5 882.5 529.5C884.091 529.5 885.617 528.868 886.743 527.743C887.868 526.617 888.5 525.091 888.5 523.5C888.5 521.909 887.868 520.383 886.743 519.257C885.617 518.132 884.091 517.5 882.5 517.5Z" fill="#101010"/>
<path fill-rule="evenodd" clip-rule="evenodd" d="M883.25 519.75C883.25 519.551 883.171 519.36 883.03 519.22C882.89 519.079 882.699 519 882.5 519C882.301 519 882.11 519.079 881.97 519.22C881.829 519.36 881.75 519.551 881.75 519.75V522.75H878.75C878.551 522.75 878.36 522.829 878.22 522.97C878.079 523.11 878 523.301 878 523.5C878 523.699 878.079 523.89 878.22 524.03C878.36 524.171 878.551 524.25 878.75 524.25H881.75V527.25C881.75 527.449 881.829 527.64 881.97 527.78C882.11 527.921 882.301 528 882.5 528C882.699 528 882.89 527.921 883.03 527.78C883.171 527.64 883.25 527.449 883.25 527.25V524.25H886.25C886.449 524.25 886.64 524.171 886.78 524.03C886.921 523.89 887 523.699 887 523.5C887 523.301 886.921 523.11 886.78 522.97C886.64 522.829 886.449 522.75 886.25 522.75H883.25V519.75Z" fill="#101010"/>
<path d="M818 267C818 270.866 814.866 274 811 274C807.134 274 804 270.866 804 267C804 263.134 807.134 260 811 260C814.866 260 818 263.134 818 267ZM805.681 267C805.681 269.937 808.063 272.319 811 272.319C813.937 272.319 816.319 269.937 816.319 267C816.319 264.063 813.937 261.681 811 261.681C808.063 261.681 805.681 264.063 805.681 267Z" fill="#101010"/>
<path d="M861 280C861 283.866 857.866 287 854 287C850.134 287 847 283.866 847 280C847 276.134 850.134 273 854 273C857.866 273 861 276.134 861 280ZM848.681 280C848.681 282.937 851.063 285.319 854 285.319C856.937 285.319 859.319 282.937 859.319 280C859.319 277.063 856.937 274.681 854 274.681C851.063 274.681 848.681 277.063 848.681 280Z" fill="#101010"/>
<rect x="862.5" y="440.5" width="24" height="39" stroke="#101010"/>
<rect x="869.5" y="448.5" width="10" height="23" rx="3.5" stroke="#101010"/>
<rect x="803.5" y="485.5" width="15" height="15" rx="5.5" stroke="#101010"/>
<rect x="854.5" y="488.5" width="8" height="18" rx="2.5" stroke="#101010"/>
<rect x="842.5" y="400.5" width="15" height="33" rx="1.5" stroke="#101010"/>
<rect x="862.5" y="400.5" width="15" height="33" rx="1.5" stroke="#101010"/>
<rect x="850.5" y="353.5" width="26" height="37" rx="1.5" stroke="#101010"/>
<path d="M853 304.5H858.5C862.366 304.5 865.5 307.634 865.5 311.5V334.5C865.5 338.366 862.366 341.5 858.5 341.5H853C852.172 341.5 851.5 340.828 851.5 340V306C851.5 305.172 852.172 304.5 853 304.5Z" stroke="#101010"/>
<path d="M405 78.5H670C671.381 78.5 672.5 79.6193 672.5 81V84.5H402.5V81C402.5 79.6193 403.619 78.5 405 78.5Z" stroke="#101010"/>
<path d="M405 81.5H670C671.381 81.5 672.5 82.6193 672.5 84V84.5H402.5V84C402.5 82.6193 403.619 81.5 405 81.5Z" stroke="#101010"/>
<rect x="427.5" y="84.5" width="13" height="13" stroke="#101010"/>
<rect x="432.5" y="84.5" width="8" height="13" stroke="#101010"/>
<rect x="636.5" y="84.5" width="13" height="13" stroke="#101010"/>
<rect x="641.5" y="84.5" width="8" height="13" stroke="#101010"/>
<path d="M653 675.5H630C626.962 675.5 624.5 673.038 624.5 670V659.5H658.5V670C658.5 673.038 656.038 675.5 653 675.5Z" stroke="#101010"/>
<path d="M445 675.5H422C418.962 675.5 416.5 673.038 416.5 670V659.5H450.5V670C450.5 673.038 448.038 675.5 445 675.5Z" stroke="#101010"/>
<path fill-rule="evenodd" clip-rule="evenodd" d="M421 234.5C421 230.358 424.358 227 428.5 227C432.642 227 436 230.358 436 234.5C436 238.642 432.642 242 428.5 242C424.358 242 421 238.642 421 234.5ZM428.5 228.5C426.909 228.5 425.383 229.132 424.257 230.257C423.132 231.383 422.5 232.909 422.5 234.5C422.5 236.091 423.132 237.617 424.257 238.743C425.383 239.868 426.909 240.5 428.5 240.5C430.091 240.5 431.617 239.868 432.743 238.743C433.868 237.617 434.5 236.091 434.5 234.5C434.5 232.909 433.868 231.383 432.743 230.257C431.617 229.132 430.091 228.5 428.5 228.5Z" fill="#101010"/>
<path fill-rule="evenodd" clip-rule="evenodd" d="M429.25 230.75C429.25 230.551 429.171 230.36 429.03 230.22C428.89 230.079 428.699 230 428.5 230C428.301 230 428.11 230.079 427.97 230.22C427.829 230.36 427.75 230.551 427.75 230.75V233.75H424.75C424.551 233.75 424.36 233.829 424.22 233.97C424.079 234.11 424 234.301 424 234.5C424 234.699 424.079 234.89 424.22 235.03C424.36 235.171 424.551 235.25 424.75 235.25H427.75V238.25C427.75 238.449 427.829 238.64 427.97 238.78C428.11 238.921 428.301 239 428.5 239C428.699 239 428.89 238.921 429.03 238.78C429.171 238.64 429.25 238.449 429.25 238.25V235.25H432.25C432.449 235.25 432.64 235.171 432.78 235.03C432.921 234.89 433 234.699 433 234.5C433 234.301 432.921 234.11 432.78 233.97C432.64 233.829 432.449 233.75 432.25 233.75H429.25V230.75Z" fill="#101010"/>
<path fill-rule="evenodd" clip-rule="evenodd" d="M421 523.5C421 519.358 424.358 516 428.5 516C432.642 516 436 519.358 436 523.5C436 527.642 432.642 531 428.5 531C424.358 531 421 527.642 421 523.5ZM428.5 517.5C426.909 517.5 425.383 518.132 424.257 519.257C423.132 520.383 422.5 521.909 422.5 523.5C422.5 525.091 423.132 526.617 424.257 527.743C425.383 528.868 426.909 529.5 428.5 529.5C430.091 529.5 431.617 528.868 432.743 527.743C433.868 526.617 434.5 525.091 434.5 523.5C434.5 521.909 433.868 520.383 432.743 519.257C431.617 518.132 430.091 517.5 428.5 517.5Z" fill="#101010"/>
<path fill-rule="evenodd" clip-rule="evenodd" d="M429.25 519.75C429.25 519.551 429.171 519.36 429.03 519.22C428.89 519.079 428.699 519 428.5 519C428.301 519 428.11 519.079 427.97 519.22C427.829 519.36 427.75 519.551 427.75 519.75V522.75H424.75C424.551 522.75 424.36 522.829 424.22 522.97C424.079 523.11 424 523.301 424 523.5C424 523.699 424.079 523.89 424.22 524.03C424.36 524.171 424.551 524.25 424.75 524.25H427.75V527.25C427.75 527.449 427.829 527.64 427.97 527.78C428.11 527.921 428.301 528 428.5 528C428.699 528 428.89 527.921 429.03 527.78C429.171 527.64 429.25 527.449 429.25 527.25V524.25H432.25C432.449 524.25 432.64 524.171 432.78 524.03C432.921 523.89 433 523.699 433 523.5C433 523.301 432.921 523.11 432.78 522.97C432.64 522.829 432.449 522.75 432.25 522.75H429.25V519.75Z" fill="#101010"/>
<path fill-rule="evenodd" clip-rule="evenodd" d="M641 234.5C641 230.358 644.358 227 648.5 227C652.642 227 656 230.358 656 234.5C656 238.642 652.642 242 648.5 242C644.358 242 641 238.642 641 234.5ZM648.5 228.5C646.909 228.5 645.383 229.132 644.257 230.257C643.132 231.383 642.5 232.909 642.5 234.5C642.5 236.091 643.132 237.617 644.257 238.743C645.383 239.868 646.909 240.5 648.5 240.5C650.091 240.5 651.617 239.868 652.743 238.743C653.868 237.617 654.5 236.091 654.5 234.5C654.5 232.909 653.868 231.383 652.743 230.257C651.617 229.132 650.091 228.5 648.5 228.5Z" fill="#101010"/>
<path fill-rule="evenodd" clip-rule="evenodd" d="M649.25 230.75C649.25 230.551 649.171 230.36 649.03 230.22C648.89 230.079 648.699 230 648.5 230C648.301 230 648.11 230.079 647.97 230.22C647.829 230.36 647.75 230.551 647.75 230.75V233.75H644.75C644.551 233.75 644.36 233.829 644.22 233.97C644.079 234.11 644 234.301 644 234.5C644 234.699 644.079 234.89 644.22 235.03C644.36 235.171 644.551 235.25 644.75 235.25H647.75V238.25C647.75 238.449 647.829 238.64 647.97 238.78C648.11 238.921 648.301 239 648.5 239C648.699 239 648.89 238.921 649.03 238.78C649.171 238.64 649.25 238.449 649.25 238.25V235.25H652.25C652.449 235.25 652.64 235.171 652.78 235.03C652.921 234.89 653 234.699 653 234.5C653 234.301 652.921 234.11 652.78 233.97C652.64 233.829 652.449 233.75 652.25 233.75H649.25V230.75Z" fill="#101010"/>
<path fill-rule="evenodd" clip-rule="evenodd" d="M641 523.5C641 519.358 644.358 516 648.5 516C652.642 516 656 519.358 656 523.5C656 527.642 652.642 531 648.5 531C644.358 531 641 527.642 641 523.5ZM648.5 517.5C646.909 517.5 645.383 518.132 644.257 519.257C643.132 520.383 642.5 521.909 642.5 523.5C642.5 525.091 643.132 526.617 644.257 527.743C645.383 528.868 646.909 529.5 648.5 529.5C650.091 529.5 651.617 528.868 652.743 527.743C653.868 526.617 654.5 525.091 654.5 523.5C654.5 521.909 653.868 520.383 652.743 519.257C651.617 518.132 650.091 517.5 648.5 517.5Z" fill="#101010"/>
<path fill-rule="evenodd" clip-rule="evenodd" d="M649.25 519.75C649.25 519.551 649.171 519.36 649.03 519.22C648.89 519.079 648.699 519 648.5 519C648.301 519 648.11 519.079 647.97 519.22C647.829 519.36 647.75 519.551 647.75 519.75V522.75H644.75C644.551 522.75 644.36 522.829 644.22 522.97C644.079 523.11 644 523.301 644 523.5C644 523.699 644.079 523.89 644.22 524.03C644.36 524.171 644.551 524.25 644.75 524.25H647.75V527.25C647.75 527.449 647.829 527.64 647.97 527.78C648.11 527.921 648.301 528 648.5 528C648.699 528 648.89 527.921 649.03 527.78C649.171 527.64 649.25 527.449 649.25 527.25V524.25H652.25C652.449 524.25 652.64 524.171 652.78 524.03C652.921 523.89 653 523.699 653 523.5C653 523.301 652.921 523.11 652.78 522.97C652.64 522.829 652.449 522.75 652.25 522.75H649.25V519.75Z" fill="#101010"/>
<rect x="401.5" y="97.5" width="273" height="562" rx="2.5" stroke="#101010"/>
<rect x="411.5" y="97.5" width="252" height="562" rx="2.5" stroke="#101010"/>
<rect x="406.5" y="218.5" width="263" height="322" stroke="#101010"/>
<rect x="425.5" y="540.5" width="4" height="119" stroke="#101010"/>
<rect x="425.5" y="97.5" width="4" height="121" stroke="#101010"/>
<rect x="425.5" y="540.5" width="4" height="119" stroke="#101010"/>
<rect x="425.5" y="97.5" width="4" height="121" stroke="#101010"/>
<rect x="429.5" y="540.5" width="4" height="119" stroke="#101010"/>
<rect x="429.5" y="97.5" width="4" height="121" stroke="#101010"/>
<rect x="433.5" y="540.5" width="4" height="119" stroke="#101010"/>
<rect x="433.5" y="97.5" width="4" height="121" stroke="#101010"/>
<rect x="437.5" y="540.5" width="4" height="119" stroke="#101010"/>
<rect x="437.5" y="97.5" width="4" height="121" stroke="#101010"/>
<rect x="441.5" y="540.5" width="4" height="119" stroke="#101010"/>
<rect x="441.5" y="97.5" width="4" height="121" stroke="#101010"/>
<rect x="-0.5" y="0.5" width="19" height="119" transform="matrix(-1 0 0 1 464 540)" stroke="#101010"/>
<rect x="-0.5" y="0.5" width="19" height="121" transform="matrix(-1 0 0 1 464 97)" stroke="#101010"/>
<rect x="464.5" y="540.5" width="26" height="119" stroke="#101010"/>
<rect x="464.5" y="97.5" width="26" height="121" stroke="#101010"/>
<rect x="-0.5" y="0.5" width="18" height="119" transform="matrix(-1 0 0 1 508 540)" stroke="#101010"/>
<rect x="-0.5" y="0.5" width="18" height="121" transform="matrix(-1 0 0 1 508 97)" stroke="#101010"/>
<rect x="508.5" y="540.5" width="26" height="119" stroke="#101010"/>
<rect x="508.5" y="97.5" width="26" height="121" stroke="#101010"/>
<rect x="534.5" y="540.5" width="26" height="119" stroke="#101010"/>
<rect x="534.5" y="97.5" width="26" height="121" stroke="#101010"/>
<rect x="560.5" y="540.5" width="9" height="119" stroke="#101010"/>
<rect x="560.5" y="97.5" width="9" height="121" stroke="#101010"/>
<rect x="569.5" y="540.5" width="19" height="119" stroke="#101010"/>
<rect x="569.5" y="97.5" width="19" height="121" stroke="#101010"/>
<rect x="588.5" y="540.5" width="7" height="119" stroke="#101010"/>
<rect x="588.5" y="97.5" width="7" height="121" stroke="#101010"/>
<rect x="595.5" y="540.5" width="14" height="119" stroke="#101010"/>
<rect x="595.5" y="97.5" width="14" height="121" stroke="#101010"/>
<rect x="609.5" y="540.5" width="11" height="119" stroke="#101010"/>
<rect x="609.5" y="97.5" width="11" height="121" stroke="#101010"/>
<rect x="620.5" y="540.5" width="19" height="119" stroke="#101010"/>
<rect x="620.5" y="97.5" width="19" height="121" stroke="#101010"/>
<rect x="-0.5" y="0.5" width="6" height="119" transform="matrix(-1 0 0 1 645 540)" stroke="#101010"/>
<rect x="-0.5" y="0.5" width="6" height="121" transform="matrix(-1 0 0 1 645 97)" stroke="#101010"/>
<rect x="645.5" y="540.5" width="4" height="119" stroke="#101010"/>
<rect x="645.5" y="97.5" width="4" height="121" stroke="#101010"/>
<path d="M662 636.5C662 639.538 659.538 642 656.5 642C653.462 642 651 639.538 651 636.5C651 633.462 653.462 631 656.5 631C659.538 631 662 633.462 662 636.5ZM652.537 636.5C652.537 638.689 654.311 640.463 656.5 640.463C658.689 640.463 660.463 638.689 660.463 636.5C660.463 634.311 658.689 632.537 656.5 632.537C654.311 632.537 652.537 634.311 652.537 636.5Z" fill="#101010"/>
<path d="M659 636.5C659 637.881 657.881 639 656.5 639C655.119 639 654 637.881 654 636.5C654 635.119 655.119 634 656.5 634C657.881 634 659 635.119 659 636.5ZM654.699 636.5C654.699 637.495 655.505 638.301 656.5 638.301C657.495 638.301 658.301 637.495 658.301 636.5C658.301 635.505 657.495 634.699 656.5 634.699C655.505 634.699 654.699 635.505 654.699 636.5Z" fill="#101010"/>
<path d="M662 193.5C662 196.538 659.538 199 656.5 199C653.462 199 651 196.538 651 193.5C651 190.462 653.462 188 656.5 188C659.538 188 662 190.462 662 193.5ZM652.537 193.5C652.537 195.689 654.311 197.463 656.5 197.463C658.689 197.463 660.463 195.689 660.463 193.5C660.463 191.311 658.689 189.537 656.5 189.537C654.311 189.537 652.537 191.311 652.537 193.5Z" fill="#101010"/>
<path d="M659 193.5C659 194.881 657.881 196 656.5 196C655.119 196 654 194.881 654 193.5C654 192.119 655.119 191 656.5 191C657.881 191 659 192.119 659 193.5ZM654.699 193.5C654.699 194.495 655.505 195.301 656.5 195.301C657.495 195.301 658.301 194.495 658.301 193.5C658.301 192.505 657.495 191.699 656.5 191.699C655.505 191.699 654.699 192.505 654.699 193.5Z" fill="#101010"/>
<path d="M424 636.5C424 639.538 421.538 642 418.5 642C415.462 642 413 639.538 413 636.5C413 633.462 415.462 631 418.5 631C421.538 631 424 633.462 424 636.5ZM414.537 636.5C414.537 638.689 416.311 640.463 418.5 640.463C420.689 640.463 422.463 638.689 422.463 636.5C422.463 634.311 420.689 632.537 418.5 632.537C416.311 632.537 414.537 634.311 414.537 636.5Z" fill="#101010"/>
<path d="M421 636.5C421 637.881 419.881 639 418.5 639C417.119 639 416 637.881 416 636.5C416 635.119 417.119 634 418.5 634C419.881 634 421 635.119 421 636.5ZM416.699 636.5C416.699 637.495 417.505 638.301 418.5 638.301C419.495 638.301 420.301 637.495 420.301 636.5C420.301 635.505 419.495 634.699 418.5 634.699C417.505 634.699 416.699 635.505 416.699 636.5Z" fill="#101010"/>
<path d="M424 193.5C424 196.538 421.538 199 418.5 199C415.462 199 413 196.538 413 193.5C413 190.462 415.462 188 418.5 188C421.538 188 424 190.462 424 193.5ZM414.537 193.5C414.537 195.689 416.311 197.463 418.5 197.463C420.689 197.463 422.463 195.689 422.463 193.5C422.463 191.311 420.689 189.537 418.5 189.537C416.311 189.537 414.537 191.311 414.537 193.5Z" fill="#101010"/>
<path d="M421 193.5C421 194.881 419.881 196 418.5 196C417.119 196 416 194.881 416 193.5C416 192.119 417.119 191 418.5 191C419.881 191 421 192.119 421 193.5ZM416.699 193.5C416.699 194.495 417.505 195.301 418.5 195.301C419.495 195.301 420.301 194.495 420.301 193.5C420.301 192.505 419.495 191.699 418.5 191.699C417.505 191.699 416.699 192.505 416.699 193.5Z" fill="#101010"/>
<path d="M662 563.5C662 566.538 659.538 569 656.5 569C653.462 569 651 566.538 651 563.5C651 560.462 653.462 558 656.5 558C659.538 558 662 560.462 662 563.5ZM652.537 563.5C652.537 565.689 654.311 567.463 656.5 567.463C658.689 567.463 660.463 565.689 660.463 563.5C660.463 561.311 658.689 559.537 656.5 559.537C654.311 559.537 652.537 561.311 652.537 563.5Z" fill="#101010"/>
<path d="M659 563.5C659 564.881 657.881 566 656.5 566C655.119 566 654 564.881 654 563.5C654 562.119 655.119 561 656.5 561C657.881 561 659 562.119 659 563.5ZM654.699 563.5C654.699 564.495 655.505 565.301 656.5 565.301C657.495 565.301 658.301 564.495 658.301 563.5C658.301 562.505 657.495 561.699 656.5 561.699C655.505 561.699 654.699 562.505 654.699 563.5Z" fill="#101010"/>
<path d="M662 120.5C662 123.538 659.538 126 656.5 126C653.462 126 651 123.538 651 120.5C651 117.462 653.462 115 656.5 115C659.538 115 662 117.462 662 120.5ZM652.537 120.5C652.537 122.689 654.311 124.463 656.5 124.463C658.689 124.463 660.463 122.689 660.463 120.5C660.463 118.311 658.689 116.537 656.5 116.537C654.311 116.537 652.537 118.311 652.537 120.5Z" fill="#101010"/>
<path d="M659 120.5C659 121.881 657.881 123 656.5 123C655.119 123 654 121.881 654 120.5C654 119.119 655.119 118 656.5 118C657.881 118 659 119.119 659 120.5ZM654.699 120.5C654.699 121.495 655.505 122.301 656.5 122.301C657.495 122.301 658.301 121.495 658.301 120.5C658.301 119.505 657.495 118.699 656.5 118.699C655.505 118.699 654.699 119.505 654.699 120.5Z" fill="#101010"/>
<path d="M424 563.5C424 566.538 421.538 569 418.5 569C415.462 569 413 566.538 413 563.5C413 560.462 415.462 558 418.5 558C421.538 558 424 560.462 424 563.5ZM414.537 563.5C414.537 565.689 416.311 567.463 418.5 567.463C420.689 567.463 422.463 565.689 422.463 563.5C422.463 561.311 420.689 559.537 418.5 559.537C416.311 559.537 414.537 561.311 414.537 563.5Z" fill="#101010"/>
<path d="M421 563.5C421 564.881 419.881 566 418.5 566C417.119 566 416 564.881 416 563.5C416 562.119 417.119 561 418.5 561C419.881 561 421 562.119 421 563.5ZM416.699 563.5C416.699 564.495 417.505 565.301 418.5 565.301C419.495 565.301 420.301 564.495 420.301 563.5C420.301 562.505 419.495 561.699 418.5 561.699C417.505 561.699 416.699 562.505 416.699 563.5Z" fill="#101010"/>
<path d="M424 120.5C424 123.538 421.538 126 418.5 126C415.462 126 413 123.538 413 120.5C413 117.462 415.462 115 418.5 115C421.538 115 424 117.462 424 120.5ZM414.537 120.5C414.537 122.689 416.311 124.463 418.5 124.463C420.689 124.463 422.463 122.689 422.463 120.5C422.463 118.311 420.689 116.537 418.5 116.537C416.311 116.537 414.537 118.311 414.537 120.5Z" fill="#101010"/>
<path d="M421 120.5C421 121.881 419.881 123 418.5 123C417.119 123 416 121.881 416 120.5C416 119.119 417.119 118 418.5 118C419.881 118 421 119.119 421 120.5ZM416.699 120.5C416.699 121.495 417.505 122.301 418.5 122.301C419.495 122.301 420.301 121.495 420.301 120.5C420.301 119.505 419.495 118.699 418.5 118.699C417.505 118.699 416.699 119.505 416.699 120.5Z" fill="#101010"/>
<path d="M402 2V19.75M402 37.5V19.75M402 19.75H470.5" stroke="black" stroke-width="2"/>
<path d="M674 2V19.75M674 37.5V19.75M674 19.75H622" stroke="black" stroke-width="2"/>
<path d="M489.591 7.72727V31H486.773V10.6818H486.636L480.955 14.4545V11.5909L486.773 7.72727H489.591ZM504.466 7.72727V31H501.648V10.6818H501.511L495.83 14.4545V11.5909L501.648 7.72727H504.466ZM519.023 31.3182C517.523 31.3182 516.186 31.0606 515.011 30.5455C513.845 30.0303 512.917 29.3144 512.227 28.3977C511.545 27.4735 511.174 26.4015 511.114 25.1818H513.977C514.038 25.9318 514.295 26.5795 514.75 27.125C515.205 27.6629 515.799 28.0795 516.534 28.375C517.269 28.6705 518.083 28.8182 518.977 28.8182C519.977 28.8182 520.864 28.6439 521.636 28.2955C522.409 27.947 523.015 27.4621 523.455 26.8409C523.894 26.2197 524.114 25.5 524.114 24.6818C524.114 23.8258 523.902 23.072 523.477 22.4205C523.053 21.7614 522.432 21.2462 521.614 20.875C520.795 20.5038 519.795 20.3182 518.614 20.3182H516.75V17.8182H518.614C519.538 17.8182 520.348 17.6515 521.045 17.3182C521.75 16.9848 522.299 16.5152 522.693 15.9091C523.095 15.303 523.295 14.5909 523.295 13.7727C523.295 12.9848 523.121 12.2992 522.773 11.7159C522.424 11.1326 521.932 10.678 521.295 10.3523C520.667 10.0265 519.924 9.86364 519.068 9.86364C518.265 9.86364 517.508 10.0114 516.795 10.3068C516.091 10.5947 515.515 11.0152 515.068 11.5682C514.621 12.1136 514.379 12.7727 514.341 13.5455H511.614C511.659 12.3258 512.027 11.2576 512.716 10.3409C513.405 9.41667 514.307 8.69697 515.42 8.18182C516.542 7.66667 517.773 7.40909 519.114 7.40909C520.553 7.40909 521.788 7.70076 522.818 8.28409C523.848 8.85985 524.64 9.62121 525.193 10.5682C525.746 11.5152 526.023 12.5379 526.023 13.6364C526.023 14.947 525.678 16.0644 524.989 16.9886C524.307 17.9129 523.379 18.553 522.205 18.9091V19.0909C523.674 19.3333 524.822 19.9583 525.648 20.9659C526.473 21.9659 526.886 23.2045 526.886 24.6818C526.886 25.947 526.542 27.0833 525.852 28.0909C525.17 29.0909 524.239 29.8788 523.057 30.4545C521.875 31.0303 520.53 31.3182 519.023 31.3182ZM532.815 31.1818C532.255 31.1818 531.774 30.9811 531.372 30.5795C530.971 30.178 530.77 29.697 530.77 29.1364C530.77 28.5758 530.971 28.0947 531.372 27.6932C531.774 27.2917 532.255 27.0909 532.815 27.0909C533.376 27.0909 533.857 27.2917 534.259 27.6932C534.66 28.0947 534.861 28.5758 534.861 29.1364C534.861 29.5076 534.766 29.8485 534.577 30.1591C534.395 30.4697 534.149 30.7197 533.838 30.9091C533.535 31.0909 533.194 31.1818 532.815 31.1818ZM546.432 31.3182C545.098 31.3182 543.898 31.053 542.83 30.5227C541.761 29.9924 540.905 29.2652 540.261 28.3409C539.617 27.4167 539.265 26.3636 539.205 25.1818H541.932C542.038 26.2348 542.515 27.1061 543.364 27.7955C544.22 28.4773 545.242 28.8182 546.432 28.8182C547.386 28.8182 548.235 28.5947 548.977 28.1477C549.727 27.7008 550.314 27.0871 550.739 26.3068C551.17 25.5189 551.386 24.6288 551.386 23.6364C551.386 22.6212 551.163 21.7159 550.716 20.9205C550.277 20.1174 549.67 19.4848 548.898 19.0227C548.125 18.5606 547.242 18.3258 546.25 18.3182C545.538 18.3106 544.807 18.4205 544.057 18.6477C543.307 18.8674 542.689 19.1515 542.205 19.5L539.568 19.1818L540.977 7.72727H553.068V10.2273H543.341L542.523 17.0909H542.659C543.136 16.7121 543.735 16.3977 544.455 16.1477C545.174 15.8977 545.924 15.7727 546.705 15.7727C548.129 15.7727 549.398 16.1136 550.511 16.7955C551.633 17.4697 552.511 18.3939 553.148 19.5682C553.792 20.7424 554.114 22.0833 554.114 23.5909C554.114 25.0758 553.78 26.4015 553.114 27.5682C552.455 28.7273 551.545 29.6439 550.386 30.3182C549.227 30.9848 547.909 31.3182 546.432 31.3182ZM558.673 31V13.5455H561.264V16.2727H561.491C561.855 15.3409 562.442 14.6174 563.253 14.1023C564.063 13.5795 565.037 13.3182 566.173 13.3182C567.325 13.3182 568.283 13.5795 569.048 14.1023C569.821 14.6174 570.423 15.3409 570.855 16.2727H571.037C571.484 15.3712 572.154 14.6553 573.048 14.125C573.942 13.5871 575.014 13.3182 576.264 13.3182C577.825 13.3182 579.101 13.8068 580.094 14.7841C581.086 15.7538 581.582 17.2652 581.582 19.3182V31H578.901V19.3182C578.901 18.0303 578.548 17.1098 577.844 16.5568C577.139 16.0038 576.31 15.7273 575.355 15.7273C574.128 15.7273 573.177 16.0985 572.503 16.8409C571.829 17.5758 571.491 18.5076 571.491 19.6364V31H568.764V19.0455C568.764 18.053 568.442 17.2538 567.798 16.6477C567.154 16.0341 566.325 15.7273 565.31 15.7273C564.613 15.7273 563.961 15.9129 563.355 16.2841C562.757 16.6553 562.272 17.1705 561.901 17.8295C561.537 18.4811 561.355 19.2348 561.355 20.0909V31H558.673ZM586.486 31V13.5455H589.077V16.2727H589.304C589.668 15.3409 590.255 14.6174 591.065 14.1023C591.876 13.5795 592.849 13.3182 593.986 13.3182C595.137 13.3182 596.096 13.5795 596.861 14.1023C597.634 14.6174 598.236 15.3409 598.668 16.2727H598.849C599.296 15.3712 599.967 14.6553 600.861 14.125C601.755 13.5871 602.827 13.3182 604.077 13.3182C605.637 13.3182 606.914 13.8068 607.906 14.7841C608.899 15.7538 609.395 17.2652 609.395 19.3182V31H606.713V19.3182C606.713 18.0303 606.361 17.1098 605.656 16.5568C604.952 16.0038 604.122 15.7273 603.168 15.7273C601.94 15.7273 600.99 16.0985 600.315 16.8409C599.641 17.5758 599.304 18.5076 599.304 19.6364V31H596.577V19.0455C596.577 18.053 596.255 17.2538 595.611 16.6477C594.967 16.0341 594.137 15.7273 593.122 15.7273C592.425 15.7273 591.774 15.9129 591.168 16.2841C590.569 16.6553 590.084 17.1705 589.713 17.8295C589.349 18.4811 589.168 19.2348 589.168 20.0909V31H586.486Z" fill="black"/>
<path d="M3 78.5H228C229.381 78.5 230.5 79.6193 230.5 81V84.5H0.5V81C0.5 79.6193 1.61929 78.5 3 78.5Z" stroke="#101010"/>
<path d="M3 81.5H228C229.381 81.5 230.5 82.6193 230.5 84V84.5H0.5V84C0.5 82.6193 1.61929 81.5 3 81.5Z" stroke="#101010"/>
<rect x="20.5" y="84.5" width="13" height="12" stroke="#101010"/>
<rect x="25.5" y="84.5" width="8" height="12" stroke="#101010"/>
<rect x="197.5" y="84.5" width="13" height="12" stroke="#101010"/>
<rect x="202.5" y="84.5" width="8" height="12" stroke="#101010"/>
<path d="M3 96.5H9.5V659.5H3C2.17158 659.5 1.5 658.828 1.5 658V98C1.50001 97.1716 2.17158 96.5 3 96.5Z" stroke="#101010"/>
<path d="M25.5 96.5V659.5H9.5V96.5H25.5Z" stroke="#101010"/>
<path d="M39.5 96.5V659.5H25.5V96.5H39.5Z" stroke="#101010"/>
<path d="M53.5 96.5V659.5H39.5V96.5H53.5Z" stroke="#101010"/>
<path d="M67.5 96.5V659.5H53.5V96.5H67.5Z" stroke="#101010"/>
<path d="M81.5 96.5V659.5H67.5V96.5H81.5Z" stroke="#101010"/>
<path d="M95.5 96.5V659.5H81.5V96.5H95.5Z" stroke="#101010"/>
<path d="M109.5 96.5V659.5H95.5V96.5H109.5Z" stroke="#101010"/>
<path d="M137.5 96.5V659.5H123.5V96.5H137.5Z" stroke="#101010"/>
<path d="M151.5 96.5V659.5H137.5V96.5H151.5Z" stroke="#101010"/>
<path d="M165.5 96.5V659.5H151.5V96.5H165.5Z" stroke="#101010"/>
<path d="M179.5 96.5V659.5H165.5V96.5H179.5Z" stroke="#101010"/>
<path d="M193.5 96.5V659.5H179.5V96.5H193.5Z" stroke="#101010"/>
<path d="M207.5 96.5V659.5H193.5V96.5H207.5Z" stroke="#101010"/>
<path d="M221.5 96.5V659.5H207.5V96.5H221.5Z" stroke="#101010"/>
<path d="M216 675.5C219.038 675.5 221.5 673.038 221.5 670V659.5H211.5V675.5H216Z" stroke="#101010"/>
<path d="M39 675.5C42.0376 675.5 44.5 673.038 44.5 670V659.5H38.5V675.5H39Z" stroke="#101010"/>
<path d="M193 675.5C189.962 675.5 187.5 673.038 187.5 670V659.5H211.5V675.5H193Z" stroke="#101010"/>
<path d="M16 675.5C12.9624 675.5 10.5 673.038 10.5 670V659.5H38.5V675.5H16Z" stroke="#101010"/>
<path d="M230.5 96.5V659.5H221.5V96.5H230.5Z" stroke="#101010"/>
<path d="M115.5 96.5V659.5H109.5V96.5H115.5Z" stroke="#101010"/>
<path d="M123.5 96.5V659.5H115.5V96.5H123.5Z" stroke="#101010"/>
<rect x="116.5" y="217.5" width="114" height="323" fill="#F9FBFC" stroke="#101010"/>
<path fill-rule="evenodd" clip-rule="evenodd" d="M121 234.5C121 230.358 124.358 227 128.5 227C132.642 227 136 230.358 136 234.5C136 238.642 132.642 242 128.5 242C124.358 242 121 238.642 121 234.5ZM128.5 228.5C126.909 228.5 125.383 229.132 124.257 230.257C123.132 231.383 122.5 232.909 122.5 234.5C122.5 236.091 123.132 237.617 124.257 238.743C125.383 239.868 126.909 240.5 128.5 240.5C130.091 240.5 131.617 239.868 132.743 238.743C133.868 237.617 134.5 236.091 134.5 234.5C134.5 232.909 133.868 231.383 132.743 230.257C131.617 229.132 130.091 228.5 128.5 228.5Z" fill="#101010"/>
<path fill-rule="evenodd" clip-rule="evenodd" d="M129.25 230.75C129.25 230.551 129.171 230.36 129.03 230.22C128.89 230.079 128.699 230 128.5 230C128.301 230 128.11 230.079 127.97 230.22C127.829 230.36 127.75 230.551 127.75 230.75V233.75H124.75C124.551 233.75 124.36 233.829 124.22 233.97C124.079 234.11 124 234.301 124 234.5C124 234.699 124.079 234.89 124.22 235.03C124.36 235.171 124.551 235.25 124.75 235.25H127.75V238.25C127.75 238.449 127.829 238.64 127.97 238.78C128.11 238.921 128.301 239 128.5 239C128.699 239 128.89 238.921 129.03 238.78C129.171 238.64 129.25 238.449 129.25 238.25V235.25H132.25C132.449 235.25 132.64 235.171 132.78 235.03C132.921 234.89 133 234.699 133 234.5C133 234.301 132.921 234.11 132.78 233.97C132.64 233.829 132.449 233.75 132.25 233.75H129.25V230.75Z" fill="#101010"/>
<path fill-rule="evenodd" clip-rule="evenodd" d="M121 523.5C121 519.358 124.358 516 128.5 516C132.642 516 136 519.358 136 523.5C136 527.642 132.642 531 128.5 531C124.358 531 121 527.642 121 523.5ZM128.5 517.5C126.909 517.5 125.383 518.132 124.257 519.257C123.132 520.383 122.5 521.909 122.5 523.5C122.5 525.091 123.132 526.617 124.257 527.743C125.383 528.868 126.909 529.5 128.5 529.5C130.091 529.5 131.617 528.868 132.743 527.743C133.868 526.617 134.5 525.091 134.5 523.5C134.5 521.909 133.868 520.383 132.743 519.257C131.617 518.132 130.091 517.5 128.5 517.5Z" fill="#101010"/>
<path fill-rule="evenodd" clip-rule="evenodd" d="M129.25 519.75C129.25 519.551 129.171 519.36 129.03 519.22C128.89 519.079 128.699 519 128.5 519C128.301 519 128.11 519.079 127.97 519.22C127.829 519.36 127.75 519.551 127.75 519.75V522.75H124.75C124.551 522.75 124.36 522.829 124.22 522.97C124.079 523.11 124 523.301 124 523.5C124 523.699 124.079 523.89 124.22 524.03C124.36 524.171 124.551 524.25 124.75 524.25H127.75V527.25C127.75 527.449 127.829 527.64 127.97 527.78C128.11 527.921 128.301 528 128.5 528C128.699 528 128.89 527.921 129.03 527.78C129.171 527.64 129.25 527.449 129.25 527.25V524.25H132.25C132.449 524.25 132.64 524.171 132.78 524.03C132.921 523.89 133 523.699 133 523.5C133 523.301 132.921 523.11 132.78 522.97C132.64 522.829 132.449 522.75 132.25 522.75H129.25V519.75Z" fill="#101010"/>
<path fill-rule="evenodd" clip-rule="evenodd" d="M193 234.5C193 230.358 196.358 227 200.5 227C204.642 227 208 230.358 208 234.5C208 238.642 204.642 242 200.5 242C196.358 242 193 238.642 193 234.5ZM200.5 228.5C198.909 228.5 197.383 229.132 196.257 230.257C195.132 231.383 194.5 232.909 194.5 234.5C194.5 236.091 195.132 237.617 196.257 238.743C197.383 239.868 198.909 240.5 200.5 240.5C202.091 240.5 203.617 239.868 204.743 238.743C205.868 237.617 206.5 236.091 206.5 234.5C206.5 232.909 205.868 231.383 204.743 230.257C203.617 229.132 202.091 228.5 200.5 228.5Z" fill="#101010"/>
<path fill-rule="evenodd" clip-rule="evenodd" d="M201.25 230.75C201.25 230.551 201.171 230.36 201.03 230.22C200.89 230.079 200.699 230 200.5 230C200.301 230 200.11 230.079 199.97 230.22C199.829 230.36 199.75 230.551 199.75 230.75V233.75H196.75C196.551 233.75 196.36 233.829 196.22 233.97C196.079 234.11 196 234.301 196 234.5C196 234.699 196.079 234.89 196.22 235.03C196.36 235.171 196.551 235.25 196.75 235.25H199.75V238.25C199.75 238.449 199.829 238.64 199.97 238.78C200.11 238.921 200.301 239 200.5 239C200.699 239 200.89 238.921 201.03 238.78C201.171 238.64 201.25 238.449 201.25 238.25V235.25H204.25C204.449 235.25 204.64 235.171 204.78 235.03C204.921 234.89 205 234.699 205 234.5C205 234.301 204.921 234.11 204.78 233.97C204.64 233.829 204.449 233.75 204.25 233.75H201.25V230.75Z" fill="#101010"/>
<path fill-rule="evenodd" clip-rule="evenodd" d="M193 523.5C193 519.358 196.358 516 200.5 516C204.642 516 208 519.358 208 523.5C208 527.642 204.642 531 200.5 531C196.358 531 193 527.642 193 523.5ZM200.5 517.5C198.909 517.5 197.383 518.132 196.257 519.257C195.132 520.383 194.5 521.909 194.5 523.5C194.5 525.091 195.132 526.617 196.257 527.743C197.383 528.868 198.909 529.5 200.5 529.5C202.091 529.5 203.617 528.868 204.743 527.743C205.868 526.617 206.5 525.091 206.5 523.5C206.5 521.909 205.868 520.383 204.743 519.257C203.617 518.132 202.091 517.5 200.5 517.5Z" fill="#101010"/>
<path fill-rule="evenodd" clip-rule="evenodd" d="M201.25 519.75C201.25 519.551 201.171 519.36 201.03 519.22C200.89 519.079 200.699 519 200.5 519C200.301 519 200.11 519.079 199.97 519.22C199.829 519.36 199.75 519.551 199.75 519.75V522.75H196.75C196.551 522.75 196.36 522.829 196.22 522.97C196.079 523.11 196 523.301 196 523.5C196 523.699 196.079 523.89 196.22 524.03C196.36 524.171 196.551 524.25 196.75 524.25H199.75V527.25C199.75 527.449 199.829 527.64 199.97 527.78C200.11 527.921 200.301 528 200.5 528C200.699 528 200.89 527.921 201.03 527.78C201.171 527.64 201.25 527.449 201.25 527.25V524.25H204.25C204.449 524.25 204.64 524.171 204.78 524.03C204.921 523.89 205 523.699 205 523.5C205 523.301 204.921 523.11 204.78 522.97C204.64 522.829 204.449 522.75 204.25 522.75H201.25V519.75Z" fill="#101010"/>
<circle cx="144" cy="286" r="11" fill="#101010"/>
<path d="M160 323C160 326.866 156.866 330 153 330C149.134 330 146 326.866 146 323C146 319.134 149.134 316 153 316C156.866 316 160 319.134 160 323ZM147.681 323C147.681 325.937 150.063 328.319 153 328.319C155.937 328.319 158.319 325.937 158.319 323C158.319 320.063 155.937 317.681 153 317.681C150.063 317.681 147.681 320.063 147.681 323Z" fill="#101010"/>
<path d="M155 476C155 479.866 151.866 483 148 483C144.134 483 141 479.866 141 476C141 472.134 144.134 469 148 469C151.866 469 155 472.134 155 476ZM142.681 476C142.681 478.937 145.063 481.319 148 481.319C150.937 481.319 153.319 478.937 153.319 476C153.319 473.063 150.937 470.681 148 470.681C145.063 470.681 142.681 473.063 142.681 476Z" fill="#101010"/>
<circle cx="206" cy="486" r="3" fill="#101010"/>
<circle cx="147" cy="458" r="3" fill="#101010"/>
<circle cx="206" cy="414" r="3" fill="#101010"/>
<circle cx="206" cy="342" r="3" fill="#101010"/>
<circle cx="206" cy="270" r="3" fill="#101010"/>
<rect x="141.5" y="405.5" width="24" height="39" stroke="#101010"/>
<rect x="146.5" y="355.5" width="15" height="32" stroke="#101010"/>
<rect x="148.5" y="413.5" width="10" height="23" rx="3.5" stroke="#101010"/>
<path d="M292 79H274.75M257.5 79H274.75M274.75 79V284.5" stroke="black" stroke-width="2"/>
<path d="M292 675H275M258 675H275M275 675V456" stroke="black" stroke-width="2"/>
<path d="M1 2V19.75M1 37.5V19.75M1 19.75H63" stroke="black" stroke-width="2"/>
<path d="M231 2V19.75M231 37.5V19.75M231 19.75H169" stroke="black" stroke-width="2"/>
<path d="M81.8182 7.40909C82.7727 7.41667 83.7273 7.59848 84.6818 7.95454C85.6364 8.31061 86.5076 8.90151 87.2955 9.72727C88.0833 10.5455 88.7159 11.6629 89.1932 13.0795C89.6705 14.4962 89.9091 16.2727 89.9091 18.4091C89.9091 20.4773 89.7121 22.3144 89.3182 23.9205C88.9318 25.5189 88.3712 26.8674 87.6364 27.9659C86.9091 29.0644 86.0227 29.8977 84.9773 30.4659C83.9394 31.0341 82.7652 31.3182 81.4545 31.3182C80.1515 31.3182 78.9886 31.0606 77.9659 30.5455C76.9508 30.0227 76.1174 29.2992 75.4659 28.375C74.822 27.4432 74.4091 26.3636 74.2273 25.1364H77C77.25 26.2045 77.7462 27.0871 78.4886 27.7841C79.2386 28.4735 80.2273 28.8182 81.4545 28.8182C83.25 28.8182 84.6667 28.0341 85.7045 26.4659C86.75 24.8977 87.2727 22.6818 87.2727 19.8182H87.0909C86.6667 20.4545 86.1629 21.0038 85.5795 21.4659C84.9962 21.928 84.3485 22.2841 83.6364 22.5341C82.9242 22.7841 82.1667 22.9091 81.3636 22.9091C80.0303 22.9091 78.8068 22.5795 77.6932 21.9205C76.5871 21.2538 75.7008 20.3409 75.0341 19.1818C74.375 18.0152 74.0455 16.6818 74.0455 15.1818C74.0455 13.7576 74.3636 12.4545 75 11.2727C75.6439 10.0833 76.5455 9.13636 77.7045 8.43182C78.8712 7.72727 80.2424 7.38636 81.8182 7.40909ZM81.8182 9.90909C80.8636 9.90909 80.0038 10.1477 79.2386 10.625C78.4811 11.0947 77.8788 11.7311 77.4318 12.5341C76.9924 13.3295 76.7727 14.2121 76.7727 15.1818C76.7727 16.1515 76.9848 17.0341 77.4091 17.8295C77.8409 18.6174 78.428 19.2462 79.1705 19.7159C79.9205 20.178 80.7727 20.4091 81.7273 20.4091C82.447 20.4091 83.1174 20.2689 83.7386 19.9886C84.3598 19.7008 84.9015 19.3106 85.3636 18.8182C85.8333 18.3182 86.2008 17.7538 86.4659 17.125C86.7311 16.4886 86.8636 15.8258 86.8636 15.1364C86.8636 14.2273 86.6439 13.375 86.2045 12.5795C85.7727 11.7841 85.1742 11.1402 84.4091 10.6477C83.6515 10.1553 82.7879 9.90909 81.8182 9.90909ZM101.651 31.3182C100.317 31.3182 99.1165 31.053 98.0483 30.5227C96.9801 29.9924 96.1241 29.2652 95.4801 28.3409C94.8362 27.4167 94.4839 26.3636 94.4233 25.1818H97.1506C97.2566 26.2348 97.7339 27.1061 98.5824 27.7955C99.4384 28.4773 100.461 28.8182 101.651 28.8182C102.605 28.8182 103.454 28.5947 104.196 28.1477C104.946 27.7008 105.533 27.0871 105.957 26.3068C106.389 25.5189 106.605 24.6288 106.605 23.6364C106.605 22.6212 106.382 21.7159 105.935 20.9205C105.495 20.1174 104.889 19.4848 104.116 19.0227C103.344 18.5606 102.461 18.3258 101.469 18.3182C100.757 18.3106 100.026 18.4205 99.2756 18.6477C98.5256 18.8674 97.9081 19.1515 97.4233 19.5L94.7869 19.1818L96.196 7.72727H108.287V10.2273H98.5597L97.7415 17.0909H97.8778C98.3551 16.7121 98.9536 16.3977 99.6733 16.1477C100.393 15.8977 101.143 15.7727 101.923 15.7727C103.348 15.7727 104.616 16.1136 105.73 16.7955C106.851 17.4697 107.73 18.3939 108.366 19.5682C109.01 20.7424 109.332 22.0833 109.332 23.5909C109.332 25.0758 108.999 26.4015 108.332 27.5682C107.673 28.7273 106.764 29.6439 105.605 30.3182C104.446 30.9848 103.128 31.3182 101.651 31.3182ZM113.892 31V13.5455H116.483V16.2727H116.71C117.074 15.3409 117.661 14.6174 118.472 14.1023C119.282 13.5795 120.256 13.3182 121.392 13.3182C122.544 13.3182 123.502 13.5795 124.267 14.1023C125.04 14.6174 125.642 15.3409 126.074 16.2727H126.256C126.703 15.3712 127.373 14.6553 128.267 14.125C129.161 13.5871 130.233 13.3182 131.483 13.3182C133.044 13.3182 134.32 13.8068 135.312 14.7841C136.305 15.7538 136.801 17.2652 136.801 19.3182V31H134.119V19.3182C134.119 18.0303 133.767 17.1098 133.062 16.5568C132.358 16.0038 131.528 15.7273 130.574 15.7273C129.347 15.7273 128.396 16.0985 127.722 16.8409C127.047 17.5758 126.71 18.5076 126.71 19.6364V31H123.983V19.0455C123.983 18.053 123.661 17.2538 123.017 16.6477C122.373 16.0341 121.544 15.7273 120.528 15.7273C119.831 15.7273 119.18 15.9129 118.574 16.2841C117.975 16.6553 117.491 17.1705 117.119 17.8295C116.756 18.4811 116.574 19.2348 116.574 20.0909V31H113.892ZM141.705 31V13.5455H144.295V16.2727H144.523C144.886 15.3409 145.473 14.6174 146.284 14.1023C147.095 13.5795 148.068 13.3182 149.205 13.3182C150.356 13.3182 151.314 13.5795 152.08 14.1023C152.852 14.6174 153.455 15.3409 153.886 16.2727H154.068C154.515 15.3712 155.186 14.6553 156.08 14.125C156.973 13.5871 158.045 13.3182 159.295 13.3182C160.856 13.3182 162.133 13.8068 163.125 14.7841C164.117 15.7538 164.614 17.2652 164.614 19.3182V31H161.932V19.3182C161.932 18.0303 161.58 17.1098 160.875 16.5568C160.17 16.0038 159.341 15.7273 158.386 15.7273C157.159 15.7273 156.208 16.0985 155.534 16.8409C154.86 17.5758 154.523 18.5076 154.523 19.6364V31H151.795V19.0455C151.795 18.053 151.473 17.2538 150.83 16.6477C150.186 16.0341 149.356 15.7273 148.341 15.7273C147.644 15.7273 146.992 15.9129 146.386 16.2841C145.788 16.6553 145.303 17.1705 144.932 17.8295C144.568 18.4811 144.386 19.2348 144.386 20.0909V31H141.705Z" fill="black"/>
<path d="M263 302.409H265.045L273.455 310.091C274.439 310.992 275.295 311.735 276.023 312.318C276.758 312.902 277.447 313.333 278.091 313.614C278.742 313.902 279.424 314.045 280.136 314.045C280.955 314.045 281.663 313.848 282.261 313.455C282.86 313.068 283.322 312.538 283.648 311.864C283.973 311.189 284.136 310.432 284.136 309.591C284.136 308.697 283.951 307.917 283.58 307.25C283.216 306.591 282.705 306.08 282.045 305.716C281.386 305.36 280.614 305.182 279.727 305.182V302.5C281.091 302.5 282.288 302.814 283.318 303.443C284.348 304.072 285.152 304.928 285.727 306.011C286.303 307.102 286.591 308.326 286.591 309.682C286.591 311.045 286.303 312.254 285.727 313.307C285.152 314.36 284.375 315.186 283.398 315.784C282.42 316.383 281.333 316.682 280.136 316.682C279.28 316.682 278.443 316.527 277.625 316.216C276.814 315.913 275.909 315.383 274.909 314.625C273.917 313.875 272.705 312.833 271.273 311.5L265.682 306.273H265.5V317.091H263V302.409ZM267.773 320.739H270.091L286.273 330.966V332.648H282.682V331.511L270.455 323.784H270.273V337.557H267.773V320.739ZM263 331.693H268.477H269.557H286.273V334.375H263V331.693ZM263 342.543L283.591 352.952H283.773V340.952H286.273V355.861H283.636L263 345.497V342.543ZM262.818 358.097C262.818 357.536 263.019 357.055 263.42 356.653C263.822 356.252 264.303 356.051 264.864 356.051C265.424 356.051 265.905 356.252 266.307 356.653C266.708 357.055 266.909 357.536 266.909 358.097C266.909 358.657 266.708 359.138 266.307 359.54C265.905 359.941 265.424 360.142 264.864 360.142C264.492 360.142 264.152 360.047 263.841 359.858C263.53 359.676 263.28 359.43 263.091 359.119C262.909 358.816 262.818 358.475 262.818 358.097ZM286.591 372.099C286.583 373.054 286.402 374.009 286.045 374.963C285.689 375.918 285.098 376.789 284.273 377.577C283.455 378.365 282.337 378.997 280.92 379.474C279.504 379.952 277.727 380.19 275.591 380.19C273.523 380.19 271.686 379.993 270.08 379.599C268.481 379.213 267.133 378.652 266.034 377.918C264.936 377.19 264.102 376.304 263.534 375.259C262.966 374.221 262.682 373.046 262.682 371.736C262.682 370.433 262.939 369.27 263.455 368.247C263.977 367.232 264.701 366.399 265.625 365.747C266.557 365.103 267.636 364.69 268.864 364.509V367.281C267.795 367.531 266.913 368.027 266.216 368.77C265.527 369.52 265.182 370.509 265.182 371.736C265.182 373.531 265.966 374.948 267.534 375.986C269.102 377.031 271.318 377.554 274.182 377.554V377.372C273.545 376.948 272.996 376.444 272.534 375.861C272.072 375.277 271.716 374.63 271.466 373.918C271.216 373.205 271.091 372.448 271.091 371.645C271.091 370.312 271.42 369.088 272.08 367.974C272.746 366.868 273.659 365.982 274.818 365.315C275.985 364.656 277.318 364.327 278.818 364.327C280.242 364.327 281.545 364.645 282.727 365.281C283.917 365.925 284.864 366.827 285.568 367.986C286.273 369.152 286.614 370.524 286.591 372.099ZM284.091 372.099C284.091 371.145 283.852 370.285 283.375 369.52C282.905 368.762 282.269 368.16 281.466 367.713C280.67 367.274 279.788 367.054 278.818 367.054C277.848 367.054 276.966 367.266 276.17 367.69C275.383 368.122 274.754 368.709 274.284 369.452C273.822 370.202 273.591 371.054 273.591 372.009C273.591 372.728 273.731 373.399 274.011 374.02C274.299 374.641 274.689 375.183 275.182 375.645C275.682 376.115 276.246 376.482 276.875 376.747C277.511 377.012 278.174 377.145 278.864 377.145C279.773 377.145 280.625 376.925 281.42 376.486C282.216 376.054 282.86 375.455 283.352 374.69C283.845 373.933 284.091 373.069 284.091 372.099ZM263 384.705H280.455V387.295H277.727V387.523C278.659 387.886 279.383 388.473 279.898 389.284C280.42 390.095 280.682 391.068 280.682 392.205C280.682 393.356 280.42 394.314 279.898 395.08C279.383 395.852 278.659 396.455 277.727 396.886V397.068C278.629 397.515 279.345 398.186 279.875 399.08C280.413 399.973 280.682 401.045 280.682 402.295C280.682 403.856 280.193 405.133 279.216 406.125C278.246 407.117 276.735 407.614 274.682 407.614H263V404.932H274.682C275.97 404.932 276.89 404.58 277.443 403.875C277.996 403.17 278.273 402.341 278.273 401.386C278.273 400.159 277.902 399.208 277.159 398.534C276.424 397.86 275.492 397.523 274.364 397.523H263V394.795H274.955C275.947 394.795 276.746 394.473 277.352 393.83C277.966 393.186 278.273 392.356 278.273 391.341C278.273 390.644 278.087 389.992 277.716 389.386C277.345 388.788 276.83 388.303 276.17 387.932C275.519 387.568 274.765 387.386 273.909 387.386H263V384.705ZM263 412.517H280.455V415.108H277.727V415.335C278.659 415.699 279.383 416.286 279.898 417.097C280.42 417.907 280.682 418.881 280.682 420.017C280.682 421.169 280.42 422.127 279.898 422.892C279.383 423.665 278.659 424.267 277.727 424.699V424.881C278.629 425.328 279.345 425.998 279.875 426.892C280.413 427.786 280.682 428.858 280.682 430.108C280.682 431.669 280.193 432.945 279.216 433.938C278.246 434.93 276.735 435.426 274.682 435.426H263V432.744H274.682C275.97 432.744 276.89 432.392 277.443 431.688C277.996 430.983 278.273 430.153 278.273 429.199C278.273 427.972 277.902 427.021 277.159 426.347C276.424 425.672 275.492 425.335 274.364 425.335H263V422.608H274.955C275.947 422.608 276.746 422.286 277.352 421.642C277.966 420.998 278.273 420.169 278.273 419.153C278.273 418.456 278.087 417.805 277.716 417.199C277.345 416.6 276.83 416.116 276.17 415.744C275.519 415.381 274.765 415.199 273.909 415.199H263V412.517Z" fill="black"/>
</svg>
