<svg width="161" height="96" viewBox="0 0 161 96" fill="none" xmlns="http://www.w3.org/2000/svg">
<rect x="0.5" y="0.5" width="160" height="85" rx="9.5" fill="url(#paint0_linear_812_3)" stroke="url(#paint1_linear_812_3)"/>
<path d="M66.5509 96H94.4517C94.7342 95.9991 95.0111 95.9219 95.2526 95.7767C95.4941 95.6315 95.6911 95.4237 95.8223 95.1758C95.9535 94.9279 96.014 94.6492 95.9973 94.3698C95.9806 94.0903 95.8873 93.8207 95.7274 93.5899L81.777 73.621C81.1989 72.793 79.8069 72.793 79.2272 73.621L65.2768 93.5899C65.1153 93.8202 65.0206 94.09 65.003 94.3699C64.9854 94.6498 65.0455 94.9292 65.1768 95.1776C65.3082 95.426 65.5057 95.634 65.748 95.779C65.9902 95.924 66.2679 96.0004 66.5509 96Z" fill="#E9E9E9"/>
<path d="M71.0506 93H89.9512C90.1425 92.9994 90.3301 92.9457 90.4937 92.8447C90.6573 92.7436 90.7907 92.5991 90.8796 92.4267C90.9685 92.2542 91.0095 92.0603 90.9982 91.8659C90.9868 91.6715 90.9236 91.484 90.8153 91.3234L81.3651 77.432C80.9734 76.856 80.0305 76.856 79.6378 77.432L70.1875 91.3234C70.0781 91.4836 70.014 91.6713 70.002 91.866C69.9901 92.0607 70.0308 92.2551 70.1198 92.4279C70.2088 92.6007 70.3426 92.7454 70.5067 92.8463C70.6708 92.9471 70.8589 93.0003 71.0506 93Z" fill="#95D5F9"/>
<defs>
<linearGradient id="paint0_linear_812_3" x1="80.5" y1="31.5" x2="80.5" y2="86" gradientUnits="userSpaceOnUse">
<stop offset="0.513762" stop-color="#E9E9E9"/>
<stop offset="1" stop-color="#95D5F9"/>
</linearGradient>
<linearGradient id="paint1_linear_812_3" x1="80.5" y1="0" x2="80.5" y2="86" gradientUnits="userSpaceOnUse">
<stop offset="0.202622" stop-color="#E9E9E9"/>
<stop offset="1" stop-color="#56B6EB"/>
</linearGradient>
</defs>
</svg>
