<svg width="212" height="36" viewBox="0 0 212 36" fill="none" xmlns="http://www.w3.org/2000/svg">
<path d="M19.1632 0.744762C18.2497 2.34515 0 35.8557 0 35.9533C0 35.9923 2.25449 36.0119 4.99486 35.9923L9.98972 35.9338L17.55 22.1158L25.0909 8.31733L22.5255 4.19926C21.1067 1.95481 19.8823 0.0616684 19.8045 0.00311661C19.7268 -0.0359154 19.4353 0.295872 19.1632 0.744762Z" fill="#212529"/>
<path d="M20.8989 20.8787L15.4922 30.4702L20.2158 30.5286C23.8853 30.5676 24.9784 30.5286 25.0955 30.3337C25.1931 30.1972 25.5444 29.5734 25.8958 28.9301L26.5399 27.7994L28.7065 31.8543L30.8536 35.9287L36.0456 35.9872C38.8954 36.0067 41.2376 36.0067 41.2376 35.9677C41.2376 35.7338 26.657 11.3847 26.5009 11.3457C26.4033 11.3067 23.8658 15.5956 20.8989 20.8787Z" fill="#3877C5"/>
<path d="M208.035 7.85461C207.28 7.85461 206.542 8.07855 205.914 8.49809C205.286 8.91764 204.796 9.51396 204.507 10.2116C204.218 10.9093 204.143 11.677 204.29 12.4177C204.437 13.1583 204.801 13.8387 205.335 14.3727C205.869 14.9066 206.549 15.2703 207.29 15.4176C208.031 15.5649 208.798 15.4893 209.496 15.2003C210.194 14.9113 210.79 14.422 211.21 13.7941C211.629 13.1662 211.853 12.428 211.853 11.6728C211.852 10.6605 211.449 9.68998 210.734 8.97417C210.018 8.25837 209.047 7.85574 208.035 7.85461ZM208.035 14.6425C207.448 14.6425 206.873 14.4683 206.385 14.142C205.897 13.8157 205.516 13.3519 205.291 12.8092C205.067 12.2666 205.008 11.6695 205.122 11.0934C205.237 10.5174 205.52 9.98822 205.935 9.5729C206.35 9.15758 206.88 8.87475 207.456 8.76016C208.032 8.64557 208.629 8.70438 209.171 8.92915C209.714 9.15392 210.178 9.53456 210.504 10.0229C210.831 10.5113 211.005 11.0854 211.005 11.6728C211.004 12.4601 210.691 13.215 210.134 13.7718C209.577 14.3285 208.822 14.6416 208.035 14.6425ZM209.05 12.1472C209.27 11.9915 209.436 11.7696 209.522 11.5136C209.608 11.2576 209.611 10.9808 209.53 10.7232C209.448 10.4656 209.287 10.2407 209.069 10.0809C208.851 9.92109 208.588 9.83477 208.318 9.83441H207.186C207.074 9.83441 206.966 9.87911 206.887 9.95867C206.807 10.0382 206.762 10.1461 206.762 10.2587V13.0869C206.762 13.1995 206.807 13.3074 206.887 13.3869C206.966 13.4665 207.074 13.5112 207.186 13.5112C207.299 13.5112 207.407 13.4665 207.486 13.3869C207.566 13.3074 207.611 13.1995 207.611 13.0869V12.3799H208.185L208.813 13.3224C208.875 13.4162 208.972 13.4813 209.083 13.5034C209.193 13.5256 209.308 13.5029 209.402 13.4405C209.496 13.378 209.561 13.2809 209.583 13.1704C209.605 13.06 209.582 12.9452 209.52 12.8515L209.05 12.1472ZM207.611 10.6829H208.318C208.43 10.6829 208.538 10.7276 208.618 10.8072C208.697 10.8867 208.742 10.9946 208.742 11.1071C208.742 11.2197 208.697 11.3276 208.618 11.4071C208.538 11.4867 208.43 11.5314 208.318 11.5314H207.611V10.6829Z" fill="#212529"/>
<path d="M194.215 30.8135H182.478L180.597 35.5971H172.578L183.956 8.51575H192.826L204.204 35.5971H196.096L194.215 30.8135ZM192.244 25.7213L188.346 15.8069L184.494 25.7213H192.244Z" fill="#212529"/>
<path d="M161.081 35.867L154.871 25.5769H153.128V35.867H145.855V8.60803H158.061C160.414 8.60803 162.413 8.98339 164.058 9.73411C165.73 10.4848 166.978 11.5203 167.8 12.8405C168.622 14.1349 169.033 15.5846 169.033 17.1895C169.033 19.0016 168.466 20.6196 167.332 22.0433C166.227 23.4671 164.582 24.4767 162.399 25.0721L169.289 35.867H161.081ZM153.128 20.8784H157.636C158.968 20.8784 159.961 20.5807 160.613 19.9853C161.293 19.3899 161.633 18.5486 161.633 17.4614C161.633 16.4259 161.293 15.6104 160.613 15.015C159.961 14.4196 158.968 14.1219 157.636 14.1219H153.128V20.8784Z" fill="#212529"/>
<path d="M125.338 35.8671C122.708 35.8671 120.29 35.2755 118.085 34.0925C115.906 32.9094 114.166 31.2635 112.864 29.1546C111.589 27.02 110.951 24.6282 110.951 21.9792C110.951 19.3302 111.589 16.9513 112.864 14.8424C114.166 12.7335 115.906 11.0875 118.085 9.90444C120.29 8.7214 122.708 8.12988 125.338 8.12988C127.968 8.12988 130.372 8.7214 132.551 9.90444C134.756 11.0875 136.483 12.7335 137.732 14.8424C139.007 16.9513 139.645 19.3302 139.645 21.9792C139.645 24.6282 139.007 27.02 137.732 29.1546C136.457 31.2635 134.73 32.9094 132.551 34.0925C130.372 35.2755 127.968 35.8671 125.338 35.8671ZM125.338 29.849C127.57 29.849 129.35 29.1289 130.678 27.6886C132.033 26.2484 132.71 24.3453 132.71 21.9792C132.71 19.5874 132.033 17.6842 130.678 16.2697C129.35 14.8295 127.57 14.1094 125.338 14.1094C123.08 14.1094 121.273 14.8166 119.918 16.2311C118.59 17.6456 117.925 19.5617 117.925 21.9792C117.925 24.371 118.59 26.287 119.918 27.7272C121.273 29.1417 123.08 29.849 125.338 29.849Z" fill="#212529"/>
<path d="M98.2929 35.5971L91.7527 25.3741H89.916V35.5971H82.2559V8.51575H95.1124C97.5911 8.51575 99.6965 8.88866 101.429 9.63449C103.191 10.3803 104.505 11.409 105.371 12.7207C106.237 14.0066 106.67 15.4468 106.67 17.0414C106.67 18.8416 106.073 20.449 104.878 21.8635C103.713 23.278 101.981 24.281 99.6816 24.8726L106.939 35.5971H98.2929ZM89.916 20.7062H94.6644C96.068 20.7062 97.1133 20.4104 97.8001 19.8189C98.5169 19.2274 98.8753 18.3916 98.8753 17.3114C98.8753 16.2827 98.5169 15.4725 97.8001 14.881C97.1133 14.2895 96.068 13.9937 94.6644 13.9937H89.916V20.7062Z" fill="#212529"/>
<path d="M54.5254 8.51562V24.7181C54.5254 26.3384 54.9883 27.5857 55.9141 28.4601C56.8399 29.3346 58.1987 29.7718 59.9905 29.7718C61.7824 29.7718 63.1561 29.3346 64.1118 28.4601C65.0674 27.5857 65.5453 26.3384 65.5453 24.7181V8.51562H73.2054V24.6796C73.2054 27.0971 72.6081 29.1417 71.4136 30.8134C70.219 32.4851 68.6063 33.7453 66.5756 34.594C64.5747 35.4427 62.3349 35.867 59.8561 35.867C57.3774 35.867 55.1525 35.4555 53.1815 34.6325C51.2403 33.7838 49.7023 32.5236 48.5675 30.8519C47.4327 29.1545 46.8652 27.0971 46.8652 24.6796V8.51562H54.5254Z" fill="#212529"/>
</svg>
