<svg width="21" height="21" viewBox="0 0 21 21" fill="none" xmlns="http://www.w3.org/2000/svg">
<path d="M16.3766 0.0541992L20.5495 4.40416V20.946H4.96094V21H20.6028V4.45891L16.3766 0.0541992Z" fill="#909090"/>
<path d="M16.3244 0H4.90723V20.9458H20.5491V4.40471L16.3244 0Z" fill="#F4F4F4"/>
<path d="M4.79245 1.125H0V6.2452H15.0749V1.125H4.79245Z" fill="#7A7B7C"/>
<path d="M15.1553 6.15813H0.0976562V1.03418H15.1553V6.15813Z" fill="#DD2025"/>
<path d="M5.09059 1.90001H4.11035V5.49998H4.88134V4.28574L5.05159 4.29549C5.21707 4.29321 5.38104 4.26356 5.53684 4.20774C5.6738 4.16124 5.79968 4.08693 5.90658 3.98949C6.01621 3.89758 6.10234 3.78085 6.15783 3.649C6.23376 3.43053 6.26065 3.19803 6.23658 2.968C6.23231 2.80364 6.20349 2.64085 6.15108 2.48501C6.10386 2.37236 6.03364 2.27082 5.94491 2.18688C5.85619 2.10293 5.75092 2.03843 5.63584 1.99751C5.53663 1.96077 5.4338 1.93462 5.32909 1.91951C5.24999 1.90663 5.16998 1.90011 5.08984 1.90001M4.94809 3.6205H4.88134V2.51051H5.02609C5.08998 2.5059 5.15408 2.51571 5.21367 2.5392C5.27325 2.5627 5.32679 2.59928 5.37034 2.64626C5.46058 2.76701 5.50878 2.914 5.50759 3.06475C5.50759 3.24925 5.50759 3.4165 5.34109 3.53425C5.22117 3.6003 5.08462 3.63076 4.94809 3.6205ZM7.70132 1.89026C7.61807 1.89026 7.53707 1.89626 7.48007 1.89851L7.30157 1.90301H6.71658V5.50298H7.40507C7.66815 5.50974 7.93004 5.46516 8.17606 5.37173C8.37415 5.2935 8.54948 5.1669 8.68606 5.00348C8.81989 4.83935 8.91546 4.64745 8.96581 4.44174C9.02496 4.20918 9.0537 3.96994 9.05131 3.72999C9.06599 3.44661 9.04406 3.16252 8.98606 2.88475C8.93053 2.68052 8.82777 2.49221 8.68606 2.33501C8.57491 2.20789 8.43818 2.10567 8.28481 2.03501C8.15343 1.97411 8.01519 1.92929 7.87307 1.90151C7.81655 1.89225 7.75933 1.88798 7.70207 1.88876M7.56557 4.84148H7.49057V2.54351H7.50032C7.65494 2.52563 7.81141 2.55353 7.95032 2.62376C8.05206 2.705 8.13497 2.80735 8.19331 2.92375C8.25628 3.04625 8.29258 3.1807 8.29981 3.31825C8.30656 3.48325 8.29981 3.61825 8.29981 3.72999C8.30259 3.85872 8.29431 3.98744 8.27506 4.11474C8.25147 4.24529 8.20876 4.37165 8.14831 4.48974C8.08003 4.59987 7.98676 4.69237 7.87607 4.75974C7.7836 4.81974 7.67397 4.84767 7.56407 4.83923M11.374 1.90301H9.55155V5.50298H10.3225V4.07499H11.2975V3.406H10.3225V2.57201H11.3725V1.90301" fill="#464648"/>
<path d="M14.6372 13.6906C14.6372 13.6906 17.0282 13.2571 17.0282 14.0738C17.0282 14.8906 15.547 14.5583 14.6372 13.6906ZM12.8695 13.7528C12.4895 13.8366 12.1193 13.9595 11.7647 14.1196L12.0647 13.4446C12.3647 12.7696 12.676 11.8494 12.676 11.8494C13.0331 12.4524 13.4496 13.0183 13.9195 13.5383C13.5658 13.591 13.2153 13.6631 12.8695 13.7543V13.7528ZM11.923 8.87789C11.923 8.16614 12.1532 7.97189 12.3325 7.97189C12.5117 7.97189 12.7135 8.05814 12.7202 8.67614C12.6617 9.29754 12.5316 9.9101 12.3325 10.5016C12.0588 10.0053 11.9175 9.44689 11.9222 8.88014L11.923 8.87789ZM8.43627 16.7648C7.70278 16.3261 9.97451 14.9753 10.3863 14.9318C10.384 14.9326 9.20426 17.2238 8.43627 16.7648ZM17.7264 14.1706C17.7189 14.0956 17.6514 13.2653 16.1739 13.3006C15.5581 13.2898 14.9425 13.3332 14.3342 13.4303C13.7446 12.8369 13.2371 12.1672 12.8252 11.4391C13.0846 10.6886 13.2417 9.90658 13.2925 9.11413C13.2707 8.21414 13.0555 7.69815 12.3655 7.70565C11.6755 7.71315 11.575 8.31689 11.6657 9.21538C11.7546 9.81918 11.9222 10.4087 12.1645 10.9689C12.1645 10.9689 11.8457 11.9611 11.4242 12.9481C11.0027 13.9351 10.7148 14.4526 10.7148 14.4526C9.98169 14.6909 9.29167 15.0454 8.67102 15.5026C8.05303 16.0778 7.80178 16.5196 8.12728 16.9613C8.40777 17.3423 9.38951 17.4286 10.267 16.2788C10.7324 15.6844 11.1584 15.0601 11.542 14.4098C11.542 14.4098 12.88 14.0431 13.2962 13.9426C13.7125 13.8421 14.2157 13.7626 14.2157 13.7626C14.2157 13.7626 15.4375 14.9918 16.6157 14.9483C17.7939 14.9048 17.7369 14.2441 17.7294 14.1721" fill="#DD2025"/>
<path d="M16.2666 0.0576172V4.46233H20.4913L16.2666 0.0576172Z" fill="#909090"/>
<path d="M16.3252 0V4.40471H20.5499L16.3252 0Z" fill="#F4F4F4"/>
<path d="M5.03298 1.84239H4.05273V5.44236H4.82673V4.22887L4.99773 4.23862C5.16321 4.23634 5.32717 4.20669 5.48297 4.15087C5.61994 4.10437 5.74582 4.03007 5.85272 3.93263C5.96152 3.84045 6.04686 3.72375 6.10171 3.59213C6.17765 3.37367 6.20453 3.14116 6.18046 2.91113C6.17619 2.74678 6.14737 2.58398 6.09496 2.42814C6.04774 2.3155 5.97752 2.21395 5.8888 2.13001C5.80007 2.04607 5.6948 1.98157 5.57972 1.94064C5.48005 1.90354 5.37672 1.87714 5.27147 1.86189C5.19237 1.84901 5.11237 1.84249 5.03222 1.84239M4.89048 3.56288H4.82373V2.45289H4.96923C5.03311 2.44828 5.09721 2.45809 5.1568 2.48159C5.21638 2.50508 5.26993 2.54167 5.31347 2.58864C5.40371 2.7094 5.45192 2.85639 5.45072 3.00713C5.45072 3.19163 5.45072 3.35888 5.28422 3.47663C5.1643 3.54268 5.02775 3.57239 4.89123 3.56213M7.6437 1.83265C7.56045 1.83265 7.47945 1.83865 7.42245 1.8409L7.2462 1.8454H6.66121V5.44536H7.3497C7.61279 5.45213 7.87467 5.40755 8.1207 5.31411C8.31878 5.23588 8.49412 5.10928 8.63069 4.94587C8.76452 4.78173 8.86009 4.58983 8.91044 4.38412C8.96959 4.15157 8.99833 3.91232 8.99594 3.67238C9.01062 3.389 8.98869 3.10491 8.93069 2.82714C8.87516 2.6229 8.7724 2.43459 8.63069 2.27739C8.51954 2.15027 8.38281 2.04805 8.22944 1.97739C8.09807 1.91649 7.95982 1.87167 7.8177 1.8439C7.76118 1.83463 7.70396 1.83036 7.6467 1.83115M7.5102 4.78387H7.4352V2.48589H7.44495C7.59957 2.46801 7.75604 2.49591 7.89495 2.56614C7.99669 2.64738 8.0796 2.74974 8.13795 2.86614C8.20091 2.98864 8.23721 3.12309 8.24444 3.26063C8.25119 3.42563 8.24444 3.56063 8.24444 3.67238C8.24722 3.8011 8.23894 3.92982 8.21969 4.05712C8.1961 4.18767 8.15339 4.31403 8.09295 4.43212C8.02466 4.54225 7.93139 4.63475 7.8207 4.70212C7.72823 4.76212 7.61861 4.79005 7.5087 4.78162M11.3164 1.8454H9.49393V5.44536H10.2649V4.01737H11.2399V3.34838H10.2649V2.51439H11.3149V1.8454" fill="white"/>
</svg>
