<svg width="30" height="30" viewBox="0 0 30 30" fill="none" xmlns="http://www.w3.org/2000/svg">
<path fill-rule="evenodd" clip-rule="evenodd" d="M10.0084 8.31281H19.9922C25.0532 8.31281 27.5851 8.31281 29.0071 9.79329C30.4291 11.2738 30.0931 13.5597 29.4241 18.1332L28.7911 22.4711C28.2661 26.0576 28.0036 27.8515 26.6581 28.9255C25.3126 29.9995 23.3282 29.9995 19.3577 29.9995H10.6428C6.6739 29.9995 4.68793 29.9995 3.34245 28.9255C1.99697 27.8515 1.73447 26.0576 1.20948 22.4711L0.576486 18.1332C-0.0940048 13.5597 -0.4285 11.2738 0.99348 9.79329C2.41546 8.31281 4.94743 8.31281 10.0084 8.31281ZM9.00037 23.9996C9.00037 23.3786 9.55986 22.8746 10.2499 22.8746H19.7507C20.4407 22.8746 21.0002 23.3786 21.0002 23.9996C21.0002 24.6206 20.4407 25.1246 19.7507 25.1246H10.2499C9.55986 25.1246 9.00037 24.6206 9.00037 23.9996Z" fill="#468DC8"/>
<path opacity="0.4" d="M9.76583 -6.10352e-05H20.2357C20.5852 -6.10352e-05 20.8507 -6.08773e-05 21.0862 0.0224388C22.7482 0.185937 24.1071 1.18492 24.6846 2.5304H5.31689C5.89439 1.18492 7.25487 0.185937 8.91684 0.0224388C9.14934 -6.08773e-05 9.41784 -6.10352e-05 9.76583 -6.10352e-05Z" fill="#468DC8"/>
<path opacity="0.7" d="M6.46588 4.08441C4.38091 4.08441 2.67093 5.34439 2.10094 7.01387L2.06494 7.11887C2.67002 6.94407 3.28792 6.81718 3.91292 6.73938C5.53289 6.53238 7.58187 6.53238 9.96083 6.53238H20.2987C22.6777 6.53238 24.7266 6.53238 26.3466 6.73938C26.9766 6.82037 27.5976 6.93887 28.1946 7.11887L28.1601 7.01387C27.5901 5.34289 25.8801 4.08441 23.7936 4.08441H6.46588Z" fill="#468DC8"/>
</svg>
