<svg width="1340" height="888" viewBox="0 0 1340 888" fill="none" xmlns="http://www.w3.org/2000/svg">
<path d="M1227.5 462.306L1335 354.806L1227.5 247.306" stroke="white" stroke-opacity="0.25" stroke-width="10" stroke-linecap="round" stroke-linejoin="round"/>
<path d="M1095 462.306L1202.5 354.806L1095 247.306" stroke="white" stroke-opacity="0.25" stroke-width="10" stroke-linecap="round" stroke-linejoin="round"/>
<path d="M364.478 0.805664C424.609 34.0054 475.245 66.7859 516.4 102.633C549.892 94.5144 584.665 87.7961 619.503 81.9424C662.682 74.6871 705.987 68.7554 747.101 63.1318C788.222 57.5073 827.145 52.1924 861.593 46.167C896.048 40.1403 925.975 33.4114 949.112 24.9736C967.843 18.143 981.981 10.2408 990.512 0.805664H993.165C984.418 11.2439 969.426 19.6947 949.798 26.8525C926.49 35.3522 896.424 42.1048 861.938 48.1367C827.446 54.1699 788.482 59.4901 747.371 65.1133C706.253 70.7374 662.978 76.6666 619.834 83.916C585.489 89.6869 551.241 96.2939 518.245 104.246C584.961 162.912 626.419 229.884 642.688 320.315C651.154 367.369 651.22 406.108 642.517 439.043C633.808 471.997 616.337 499.073 589.852 522.818C579.229 532.342 567.153 541.329 553.607 549.95C600.145 550.598 647.631 535.636 694.364 510.095C763.475 472.324 830.823 411.478 890.792 344.062C950.754 276.655 1003.3 202.724 1042.81 138.836C1079.27 79.8719 1104.58 29.5377 1114.4 0.805664H1116.51C1106.76 29.6829 1081.24 80.4871 1044.51 139.889C1004.95 203.855 952.338 277.882 892.286 345.392C832.241 412.893 764.716 473.924 695.323 511.85C647.376 538.054 598.483 553.253 550.531 551.887C504.097 580.782 440.924 605.63 360.357 632.79C390.923 665.248 427.118 697.744 468.071 732.917C520.326 777.796 580.335 827.042 646.168 886.062L644.834 887.551C579.02 828.547 519.068 779.352 466.769 734.435C425.53 699.017 389.053 666.259 358.272 633.491C346.22 637.545 333.781 641.655 320.953 645.835C219.419 678.922 163.077 725.464 133.92 770.446C104.758 815.437 102.744 858.933 109.967 886.049L108.034 886.562C100.663 858.888 102.78 814.812 132.242 769.358C161.71 723.897 218.485 677.123 320.333 643.934C332.852 639.854 344.997 635.843 356.77 631.887C349.076 623.647 341.743 615.403 334.787 607.113C316.202 584.964 300.296 562.48 287.353 538.847C240.121 557.266 198.119 588.022 161.609 624.666C79.7502 706.827 25.6421 818.49 2.44629 886.628L1.49902 886.306L0.552734 885.983C23.8115 817.66 78.0512 705.697 160.191 623.254C196.788 586.522 238.951 555.628 286.391 537.076C275.354 516.641 266.527 495.337 260.093 472.64C246.013 422.973 243.406 366.702 254.091 298.381C264.829 229.721 313.137 182.854 380.187 149.557C419.534 130.016 465.393 115.12 514.022 103.214C472.485 67.2304 421.278 34.2852 360.331 0.805664H364.478ZM486.912 539.611C413.468 512.42 347.413 515.903 289.237 538.12C302.084 561.534 317.865 583.836 336.319 605.828C343.438 614.312 350.954 622.75 358.851 631.187C438.392 604.396 500.822 579.94 546.941 551.753C526.708 550.825 506.65 546.919 486.912 539.611ZM515.867 104.82C466.831 116.757 420.631 131.705 381.076 151.348C314.328 184.495 266.665 230.928 256.067 298.69C245.417 366.792 248.032 422.763 262.017 472.094C268.431 494.72 277.242 515.962 288.272 536.35C346.891 513.896 413.515 510.304 487.606 537.735C508.092 545.32 528.94 549.207 549.991 549.868C564.485 540.815 577.319 531.368 588.517 521.329C614.743 497.816 631.984 471.069 640.582 438.531C649.186 405.974 649.154 367.551 640.72 320.669C624.465 230.32 582.95 163.486 515.867 104.82Z" fill="#F4F4F4"/>
</svg>
